- 
http://www.Speed.Cd 
       
http://www.Speed.Cd      fast  and The Hottest Private Tracker on the net

(((--Submit for invite!!--)))

Please Seed back to make the speed Faster!!!

------------------nfo--------------------------
-








































          
          
              
              
                    
                    
                    
                    

Fast.5.Rios.Heist.2011.R5.LiNE.XVID.AC3-SiC

Poster:
[img]http://img692.imageshack.us/img692/3664/mv5bmtuxntk5mte0of5bml5.jpg[/img]

IMDB Link:
http://www.imdb.com/title/tt1596343/

Description:
Dominic and his crew find themselves on the wrong side of the law once again as they try to switch lanes between a ruthless drug lord and a relentless federal agent. 

MediaInfo:
General
Complete name                    : Fast.5.Rios.Heist.2011.R5.LiNE.XVID.AC3-SiC.avi
Format                           : AVI
Format/Info                      : Audio Video Interleave
File size                        : 1.58 GiB
Duration                         : 2h 5mn
Overall bit rate                 : 1 807 Kbps

Video
ID                               : 0
Format                           : MPEG-4 Visual
Format profile                   : Advanced Simple@L5
Format settings, BVOP            : 2
Format settings, QPel            : No
Format settings, GMC             : No warppoints
Format settings, Matrix          : Default (MPEG)
Muxing mode                      : Packed bitstream
Codec ID                         : XVID
Codec ID/Hint                    : XviD
Duration                         : 2h 5mn
Bit rate                         : 1 415 Kbps
Width                            : 720 pixels
Height                           : 304 pixels
Display aspect ratio             : 2.35:1
Frame rate                       : 25.000 fps
Color space                      : YUV
Chroma subsampling               : 4:2:0
Bit depth                        : 8 bits
Scan type                        : Progressive
Compression mode                 : Lossy
Bits/(Pixel*Frame)               : 0.259
Stream size                      : 1.24 GiB (78%)
Writing library                  : XviD 64

Audio
ID                               : 1
Format                           : AC-3
Format/Info                      : Audio Coding 3
Mode extension                   : CM (complete main)
Codec ID                         : 2000
Duration                         : 2h 5mn
Bit rate mode                    : Constant
Bit rate                         : 384 Kbps
Channel(s)                       : 6 channels
Channel positions                : Front: L C R, Side: L R, LFE
Sampling rate                    : 48.0 KHz
Bit depth                        : 16 bits
Compression mode                 : Lossy
Stream size                      : 343 MiB (21%)
Alignment                        : Aligned on interleaves
Interleave, duration             : 64 ms (1.60 video frames)
Interleave, preload duration     : 192 ms
Title                            : fast5 T80 3_2ch 384Kbps DELAY 0ms


Screenshots:
[img]http://img3.imageshack.us/img3/7634/snap2rm.png[/img]
[img]http://img854.imageshack.us/img854/9277/snap3c.png[/img]
[img]http://img821.imageshack.us/img821/245/snap4w.png[/img]
[img]http://img687.imageshack.us/img687/6131/snap5u.png[/img]
[img]http://img36.imageshack.us/img36/6337/snap1yh.png[/img]


Note :   cropped, resized, sharpened you know did my thing

Source : DVDR dvd9-Russian Thanks!

Audio Source: DVDR dvd9-Russian Thanks!

Encoder: scumbag

Enjoy!

Respects to CaptainHomey, Cyanide, CM8, Rx, THC, ELEKTRI4KA, 
Killerhz, PA, YeFsTe, BoxSlots, MrRep and everyone in the struggle...